<?xml version="1.0" encoding="UTF-8" standalone="no"?>
<!DOCTYPE svg PUBLIC "-//W3C//DTD SVG 1.1//EN" "http://www.w3.org/Graphics/SVG/1.1/DTD/svg11.dtd">
<svg width="100%" height="100%" viewBox="0 0 122 69" version="1.1" xmlns="http://www.w3.org/2000/svg" xmlns:xlink="http://www.w3.org/1999/xlink" xml:space="preserve" xmlns:serif="http://www.serif.com/" style="fill-rule:evenodd;clip-rule:evenodd;stroke-linejoin:round;stroke-miterlimit:2;">
    <g transform="matrix(1,0,0,1,1.12732,0)">
        <g transform="matrix(1,0,0,1,-222.87,-386.63)">
            <g transform="matrix(0.90924,0,0,1,222.768,386.63)">
                <rect x="-1.127" y="55.531" width="133.964" height="13.469" style="fill:white;"/>
            </g>
        </g>
        <g transform="matrix(1,0,0,1,-222.87,-386.63)">
            <g transform="matrix(1,0,0,1,-19,0)">
                <path d="M297.83,434.79C327.82,434.79 352.13,424.01 352.13,410.71C352.13,397.41 327.82,386.63 297.83,386.63C267.84,386.63 243.53,397.41 243.53,410.71C243.53,424.01 267.84,434.79 297.83,434.79" style="fill:rgb(0,79,137);fill-rule:nonzero;"/>
                <path d="M352.02,452.92L352.02,451.55L351.43,451.55C351.04,451.55 350.87,451.34 350.87,450.96L350.87,447.84L352.02,447.84L352.02,446.61L350.87,446.61L350.87,444.69L349.25,444.69L349.25,446.61L348.56,446.61L348.56,447.84L349.25,447.84L349.25,451.06C349.25,451.98 349.81,452.92 351.13,452.92L352.02,452.92ZM347.35,452.92L347.35,448.72C347.35,447.35 346.6,446.35 345.18,446.35C344.61,446.35 344.06,446.57 343.62,447.02L343.62,444.04L342,444.04L342,452.92L343.62,452.92L343.62,448.95C343.62,448.1 344.16,447.8 344.67,447.8C345.18,447.8 345.73,448.09 345.73,448.95L345.73,452.92L347.35,452.92ZM338.56,449.49C338.56,450.35 338.45,451.19 337.49,451.19C336.53,451.19 336.43,450.35 336.43,449.49C336.43,448.63 336.53,447.8 337.49,447.8C338.44,447.8 338.56,448.63 338.56,449.49M340.18,452.68L340.18,446.42L338.61,446.42L338.61,447.03C338.16,446.53 337.71,446.34 337.02,446.34C336.38,446.34 335.82,446.55 335.46,446.91C334.85,447.52 334.8,448.34 334.8,449.48C334.8,450.62 334.85,451.45 335.46,452.06C335.82,452.42 336.37,452.63 337.01,452.63C337.65,452.63 338.13,452.46 338.56,451.98L338.56,452.64C338.56,453.3 338.22,453.99 337.25,453.99C336.7,453.99 336.34,453.84 335.98,453.49L334.97,454.51C335.64,455.16 336.33,455.36 337.33,455.36C339.07,455.38 340.18,454.24 340.18,452.68M333.26,446.42L331.64,446.42L331.64,452.92L333.26,452.92L333.26,446.42ZM333.28,443.99L331.62,443.99L331.62,445.31L333.28,445.31L333.28,443.99ZM330.34,452.92L330.34,451.55L329.72,451.55C329.31,451.55 329.15,451.35 329.15,450.96L329.15,444.04L327.53,444.04L327.53,451.06C327.53,451.98 328.09,452.92 329.42,452.92L330.34,452.92ZM323.77,446.96C323.32,446.51 322.87,446.35 322.23,446.35C321.53,446.35 320.91,446.67 320.6,447.05L320.6,446.43L319.02,446.43L319.02,452.93L320.64,452.93L320.64,449C320.64,448.18 321.19,447.8 321.69,447.8C322.09,447.8 322.3,447.94 322.55,448.19L323.77,446.96ZM315.85,449.66C315.85,450.33 315.81,450.91 315.47,451.24C315.28,451.43 315.03,451.53 314.71,451.53C314.39,451.53 314.15,451.43 313.96,451.24C313.62,450.9 313.59,450.33 313.59,449.66C313.59,448.99 313.63,448.42 313.96,448.09C314.15,447.9 314.38,447.8 314.71,447.8C315.03,447.8 315.28,447.9 315.47,448.09C315.81,448.43 315.85,448.99 315.85,449.66M317.47,449.66C317.47,448.49 317.32,447.75 316.74,447.14C316.34,446.72 315.68,446.34 314.72,446.34C313.76,446.34 313.11,446.71 312.71,447.14C312.12,447.75 311.97,448.49 311.97,449.66C311.97,450.85 312.12,451.58 312.71,452.19C313.11,452.61 313.76,452.99 314.72,452.99C315.68,452.99 316.34,452.62 316.74,452.19C317.32,451.58 317.47,450.85 317.47,449.66M311.19,447.84L311.19,446.61L310,446.61L310,445.9C310,445.52 310.17,445.31 310.56,445.31L311.2,445.31L311.2,443.94L310.28,443.94C308.96,443.94 308.39,444.87 308.39,445.8L308.39,446.61L307.72,446.61L307.72,447.84L308.39,447.84L308.39,452.92L310,452.92L310,447.84L311.19,447.84ZM304.32,446.42L302.61,446.42L301.31,450.44L299.96,446.42L298.25,446.42L300.47,452.46L300.2,453.26C300.04,453.73 299.85,453.85 299.39,453.85L299.02,453.85L299.02,455.31L299.66,455.31C300.2,455.31 300.68,455.19 301.06,454.81C301.26,454.61 301.41,454.34 301.55,453.97L304.32,446.42ZM295.67,449.49C295.67,450.35 295.56,451.19 294.6,451.19C293.64,451.19 293.54,450.35 293.54,449.49C293.54,448.63 293.64,447.8 294.6,447.8C295.56,447.8 295.67,448.63 295.67,449.49M297.29,452.68L297.29,446.42L295.72,446.42L295.72,447.03C295.27,446.53 294.82,446.34 294.14,446.34C293.5,446.34 292.94,446.55 292.58,446.91C291.97,447.52 291.92,448.34 291.92,449.48C291.92,450.62 291.97,451.45 292.58,452.06C292.94,452.42 293.49,452.63 294.13,452.63C294.77,452.63 295.25,452.46 295.68,451.98L295.68,452.64C295.68,453.3 295.34,453.99 294.37,453.99C293.82,453.99 293.46,453.84 293.1,453.49L292.09,454.51C292.76,455.16 293.45,455.36 294.45,455.36C296.18,455.38 297.29,454.24 297.29,452.68M289.02,449.66C289.02,450.33 288.98,450.91 288.64,451.24C288.45,451.43 288.2,451.53 287.88,451.53C287.55,451.53 287.32,451.43 287.13,451.24C286.79,450.9 286.75,450.33 286.75,449.66C286.75,448.99 286.79,448.42 287.13,448.09C287.32,447.9 287.55,447.8 287.88,447.8C288.2,447.8 288.45,447.9 288.64,448.09C288.99,448.43 289.02,448.99 289.02,449.66M290.64,449.66C290.64,448.49 290.49,447.75 289.9,447.14C289.5,446.72 288.84,446.34 287.88,446.34C286.92,446.34 286.27,446.71 285.87,447.14C285.28,447.75 285.14,448.49 285.14,449.66C285.14,450.85 285.29,451.58 285.87,452.19C286.27,452.61 286.92,452.99 287.88,452.99C288.84,452.99 289.5,452.62 289.9,452.19C290.49,451.58 290.64,450.85 290.64,449.66M284.37,452.92L284.37,451.55L283.75,451.55C283.34,451.55 283.18,451.35 283.18,450.96L283.18,444.04L281.56,444.04L281.56,451.06C281.56,451.98 282.12,452.92 283.46,452.92L284.37,452.92ZM278.44,449.66C278.44,450.33 278.4,450.91 278.06,451.24C277.87,451.43 277.62,451.53 277.3,451.53C276.98,451.53 276.74,451.43 276.55,451.24C276.21,450.9 276.18,450.33 276.18,449.66C276.18,448.99 276.22,448.42 276.55,448.09C276.74,447.9 276.97,447.8 277.3,447.8C277.62,447.8 277.87,447.9 278.06,448.09C278.4,448.43 278.44,448.99 278.44,449.66M280.06,449.66C280.06,448.49 279.91,447.75 279.33,447.14C278.93,446.72 278.27,446.34 277.31,446.34C276.35,446.34 275.7,446.71 275.3,447.14C274.71,447.75 274.56,448.49 274.56,449.66C274.56,450.85 274.71,451.58 275.3,452.19C275.7,452.61 276.35,452.99 277.31,452.99C278.27,452.99 278.93,452.62 279.33,452.19C279.91,451.58 280.06,450.85 280.06,449.66M273.09,452.92L273.09,448.77C273.09,448.06 272.95,447.45 272.43,446.92C272.07,446.56 271.54,446.35 270.89,446.35C270.29,446.35 269.69,446.57 269.27,447.02L269.27,446.42L267.69,446.42L267.69,452.92L269.31,452.92L269.31,448.99C269.31,448.1 269.88,447.8 270.4,447.8C270.91,447.8 271.47,448.1 271.47,448.99L271.47,452.92L273.09,452.92ZM265.94,452.92L265.94,448.72C265.94,447.35 265.19,446.35 263.77,446.35C263.2,446.35 262.65,446.57 262.21,447.02L262.21,444.04L260.59,444.04L260.59,452.92L262.21,452.92L262.21,448.95C262.21,448.1 262.75,447.8 263.26,447.8C263.77,447.8 264.32,448.09 264.32,448.95L264.32,452.92L265.94,452.92ZM259.33,452.11L258.23,451.03C257.89,451.39 257.61,451.54 257.18,451.54C256.79,451.54 256.49,451.4 256.26,451.12C256.01,450.81 255.9,450.36 255.9,449.67C255.9,448.98 256.01,448.55 256.26,448.23C256.5,447.94 256.8,447.81 257.18,447.81C257.6,447.81 257.89,447.96 258.23,448.32L259.33,447.22C258.76,446.62 258.08,446.35 257.18,446.35C255.88,446.35 254.27,447.04 254.27,449.67C254.27,452.3 255.88,453 257.18,453C258.08,452.99 258.75,452.71 259.33,452.11M251.5,449.06L249.03,449.06C249.04,448.77 249.08,448.6 249.18,448.36C249.36,447.97 249.72,447.69 250.27,447.69C250.82,447.69 251.18,447.98 251.36,448.36C251.45,448.6 251.49,448.78 251.5,449.06M253.1,450.17L253.1,449.45C253.1,447.66 252.08,446.34 250.27,446.34C248.59,446.34 247.44,447.54 247.44,449.66C247.44,452.29 248.91,452.99 250.45,452.99C251.62,452.99 252.26,452.63 252.92,451.97L251.93,451.01C251.52,451.42 251.17,451.62 250.46,451.62C249.55,451.62 249.04,451.01 249.04,450.17L253.1,450.17ZM246.33,452.92L246.33,451.55L245.74,451.55C245.35,451.55 245.18,451.34 245.18,450.96L245.18,447.84L246.33,447.84L246.33,446.61L245.18,446.61L245.18,444.69L243.56,444.69L243.56,446.61L242.87,446.61L242.87,447.84L243.56,447.84L243.56,451.06C243.56,451.98 244.12,452.92 245.44,452.92L246.33,452.92Z" style="fill:rgb(0,79,137);fill-rule:nonzero;"/>
                <path d="M302.13,416.57L302.13,397.02L295.74,397.02L295.74,416.42C295.74,418.9 294.32,420 292.34,420C291.53,420 290.97,419.82 290.49,419.53C289.49,421.29 288,422.75 286.21,423.7C287.99,425.16 289.77,425.69 292.34,425.69C297.24,425.7 302.13,422.74 302.13,416.57" style="fill:white;fill-rule:nonzero;"/>
                <path d="M318.81,414.98C318.81,416.08 318.23,417.28 316.47,417.28L312.16,417.28L312.16,412.72L316.47,412.72C318.23,412.72 318.81,413.88 318.81,414.98M318.45,404.87C318.45,405.89 317.9,406.99 316.15,406.99L312.17,406.99L312.17,402.76L316.15,402.76C317.9,402.75 318.45,403.85 318.45,404.87M325.2,415.34C325.2,411.69 323.05,410.34 321.99,409.68C322.79,409.13 324.84,407.49 324.84,404.53C324.84,400.04 321.96,397.01 316.55,397.01L305.78,397.01L305.78,423L317.09,423C321.73,423.01 325.2,420.31 325.2,415.34" style="fill:white;fill-rule:nonzero;"/>
                <path d="M283.49,414.98C283.49,416.08 282.91,417.28 281.15,417.28L276.84,417.28L276.84,412.72L281.15,412.72C282.9,412.72 283.49,413.88 283.49,414.98M283.12,404.87C283.12,405.89 282.57,406.99 280.82,406.99L276.84,406.99L276.84,402.76L280.82,402.76C282.57,402.75 283.12,403.85 283.12,404.87M289.87,415.34C289.87,411.69 287.72,410.34 286.66,409.68C287.46,409.13 289.51,407.49 289.51,404.53C289.51,400.04 286.63,397.01 281.22,397.01L270.45,397.01L270.45,423L281.76,423C286.41,423.01 289.87,420.31 289.87,415.34" style="fill:white;fill-rule:nonzero;"/>
            </g>
        </g>
    </g>
</svg>
