<?xml version="1.0" encoding="UTF-8" standalone="no"?>
<!DOCTYPE svg PUBLIC "-//W3C//DTD SVG 1.1//EN" "http://www.w3.org/Graphics/SVG/1.1/DTD/svg11.dtd">
<svg xmlns="http://www.w3.org/2000/svg" version="1.1" viewBox="0.00 0.00 1930.00 1086.00">
<path fill="#0b5ed7" d="
  M 144.06 628.06
  L 144.06 703.78
  A 1.34 1.34 0.0 0 1 142.72 705.12
  L 44.32 705.13
  Q 43.75 705.13 43.75 704.57
  L 43.75 380.96
  Q 43.75 380.38 44.33 380.32
  Q 74.04 377.31 91.99 376.00
  Q 103.40 375.17 125.64 374.47
  C 130.02 374.33 134.13 373.56 138.57 373.53
  C 162.66 373.37 184.59 373.29 208.48 375.94
  Q 230.72 378.40 253.24 385.58
  Q 256.99 386.78 266.06 390.71
  Q 290.49 401.28 307.15 421.78
  Q 308.46 423.39 310.38 426.56
  C 311.70 428.74 313.38 430.77 314.49 433.07
  Q 315.85 435.88 317.39 438.57
  C 319.48 442.21 320.55 446.13 322.09 449.97
  Q 323.29 452.96 324.11 456.22
  Q 327.44 469.43 328.77 481.68
  C 329.28 486.38 328.59 491.11 329.43 495.76
  C 329.91 498.41 328.85 500.69 329.00 503.32
  Q 329.24 507.71 328.78 511.86
  Q 327.52 523.43 324.35 536.28
  Q 323.37 540.27 321.72 544.46
  C 320.31 548.07 319.25 551.49 317.60 555.03
  Q 300.54 591.57 263.80 609.83
  Q 240.05 621.63 213.27 625.32
  Q 201.41 626.95 190.50 627.63
  Q 190.44 627.63 190.38 627.63
  L 144.44 627.68
  A 0.38 0.38 0.0 0 0 144.06 628.06
  Z
  M 144.83 435.59
  Q 144.06 435.59 144.06 436.37
  L 144.06 568.06
  A 0.39 0.39 0.0 0 0 144.44 568.45
  Q 155.15 568.66 165.51 568.42
  Q 175.17 568.20 187.61 564.94
  C 202.55 561.03 215.26 551.70 222.53 537.94
  Q 228.54 526.57 229.59 514.86
  Q 229.74 513.27 230.16 511.82
  Q 230.23 511.57 230.23 511.31
  Q 230.18 508.26 230.58 505.37
  Q 231.55 498.22 229.95 485.52
  Q 228.84 476.75 225.74 469.51
  Q 222.24 461.33 217.19 455.64
  Q 209.03 446.45 196.57 441.62
  Q 181.72 435.86 165.73 435.66
  Q 155.68 435.54 144.83 435.59
  Z"
/>
<path fill="#0b5ed7" d="
  M 1416.03 628.29
  L 1416.02 703.81
  A 1.34 1.33 90.0 0 1 1414.69 705.15
  L 1317.17 705.08
  A 1.16 1.15 -90.0 0 1 1316.02 703.92
  L 1316.02 380.79
  A 0.44 0.44 0.0 0 1 1316.42 380.35
  Q 1338.64 378.05 1362.29 376.06
  Q 1365.54 375.79 1368.75 375.76
  C 1371.70 375.74 1374.47 375.21 1377.39 375.17
  C 1386.94 375.04 1396.37 374.20 1405.65 373.92
  C 1434.27 373.05 1462.96 372.89 1490.83 377.37
  Q 1502.72 379.28 1511.77 381.64
  Q 1518.59 383.43 1525.58 385.73
  C 1548.59 393.33 1568.72 406.72 1582.77 426.79
  Q 1584.94 429.89 1586.60 433.29
  C 1588.08 436.29 1589.99 438.84 1591.12 442.04
  Q 1592.25 445.27 1593.63 448.37
  C 1595.00 451.48 1595.48 454.30 1596.44 457.41
  Q 1597.01 459.24 1597.34 461.14
  Q 1598.22 466.08 1599.46 470.94
  C 1599.81 472.27 1599.49 473.69 1600.10 474.80
  Q 1600.35 475.25 1600.32 475.75
  Q 1600.17 478.06 1600.51 480.44
  C 1601.03 484.05 1601.00 487.08 1601.01 490.65
  Q 1601.02 493.11 1601.53 495.68
  Q 1601.95 497.79 1601.43 499.78
  C 1600.54 503.16 1601.03 507.46 1600.92 510.88
  C 1600.87 512.66 1600.19 514.21 1600.30 516.08
  C 1600.44 518.18 1599.52 519.87 1599.71 522.06
  Q 1599.76 522.65 1599.48 523.17
  C 1598.58 524.85 1598.64 526.31 1598.25 528.05
  Q 1597.25 532.45 1596.12 537.17
  Q 1595.09 541.49 1593.41 545.71
  Q 1592.29 548.50 1591.26 551.23
  Q 1590.17 554.09 1588.80 556.91
  Q 1572.32 590.79 1537.91 608.78
  C 1520.96 617.64 1502.59 623.03 1483.92 625.51
  C 1474.55 626.76 1464.80 627.68 1455.40 627.68
  Q 1433.60 627.67 1416.66 627.66
  Q 1416.03 627.66 1416.03 628.29
  Z
  M 1500.98 518.68
  C 1501.19 517.51 1501.65 516.71 1501.63 515.42
  Q 1501.62 514.30 1501.84 513.18
  Q 1502.49 509.93 1502.72 506.04
  Q 1503.35 495.21 1502.09 486.17
  Q 1500.64 475.78 1496.93 467.73
  Q 1489.08 450.66 1470.98 442.55
  C 1467.42 440.95 1463.73 440.07 1460.09 438.83
  Q 1456.40 437.58 1451.95 436.96
  C 1439.82 435.26 1428.29 435.65 1416.38 435.58
  A 0.36 0.36 0.0 0 0 1416.02 435.94
  L 1416.02 568.04
  Q 1416.02 568.45 1416.43 568.46
  Q 1426.76 568.63 1435.82 568.43
  C 1458.72 567.93 1483.13 560.10 1494.29 538.23
  Q 1499.36 528.30 1500.14 523.62
  Q 1500.54 521.23 1500.98 518.68
  Z"
/>
<path fill="#0b5ed7" d="
  M 1884.02 584.05
  Q 1885.03 588.52 1885.48 592.35
  Q 1885.53 592.79 1885.75 593.18
  Q 1885.93 593.48 1886.07 593.78
  Q 1886.21 594.08 1886.21 594.41
  Q 1886.30 603.50 1886.22 612.54
  Q 1886.21 612.96 1885.98 613.31
  Q 1885.39 614.19 1885.35 615.26
  Q 1885.25 618.60 1884.45 622.06
  C 1883.29 627.06 1882.43 631.90 1881.10 637.06
  Q 1880.32 640.08 1879.09 642.76
  C 1877.92 645.31 1877.10 648.07 1875.80 650.59
  Q 1870.93 660.02 1865.88 666.33
  Q 1850.87 685.05 1825.94 695.97
  Q 1818.24 699.34 1813.06 700.92
  C 1806.13 703.04 1799.07 705.21 1791.79 706.52
  C 1780.99 708.46 1772.98 709.90 1763.44 710.64
  Q 1761.31 710.81 1758.66 710.80
  C 1756.44 710.79 1754.38 711.23 1752.14 711.34
  Q 1732.27 712.34 1713.37 710.98
  Q 1709.08 710.67 1704.80 710.36
  Q 1700.72 710.07 1696.29 709.50
  Q 1679.11 707.30 1667.78 705.04
  Q 1658.57 703.21 1647.85 700.47
  C 1642.56 699.12 1637.51 697.22 1632.38 695.51
  A 1.40 1.38 5.8 0 1 1631.44 694.37
  Q 1629.57 679.50 1626.83 662.48
  Q 1626.04 657.58 1625.36 652.25
  Q 1625.03 649.57 1624.98 647.37
  C 1624.97 646.48 1624.57 645.87 1624.46 644.99
  Q 1623.21 634.98 1621.23 625.08
  C 1620.99 623.84 1621.44 622.75 1620.85 621.65
  Q 1620.63 621.24 1620.78 620.82
  Q 1620.92 620.44 1621.30 620.26
  Q 1621.73 620.05 1622.14 620.29
  Q 1625.61 622.31 1629.01 623.67
  Q 1643.61 629.53 1655.44 632.97
  Q 1662.03 634.89 1669.75 636.87
  C 1679.53 639.37 1689.10 641.10 1699.11 642.70
  Q 1720.81 646.19 1744.68 645.22
  Q 1757.46 644.70 1767.73 640.52
  Q 1786.23 632.98 1784.68 612.48
  Q 1784.13 605.24 1778.40 599.07
  C 1770.35 590.39 1757.13 584.53 1745.76 580.44
  Q 1727.46 573.85 1708.24 566.98
  Q 1702.52 564.93 1690.02 559.01
  C 1672.42 550.67 1656.81 539.65 1645.40 523.95
  Q 1638.72 514.76 1634.77 502.12
  Q 1632.61 495.18 1631.55 489.34
  Q 1630.42 483.05 1630.60 475.00
  C 1630.74 468.43 1630.19 461.63 1631.37 455.08
  Q 1633.25 444.66 1636.32 436.66
  Q 1638.74 430.38 1643.01 423.28
  C 1651.02 409.95 1664.19 398.60 1677.59 391.71
  C 1683.00 388.92 1688.88 386.11 1694.81 384.23
  C 1699.80 382.66 1704.69 380.71 1709.91 379.66
  C 1717.86 378.07 1725.52 376.16 1733.64 375.25
  Q 1741.15 374.41 1747.39 374.06
  Q 1797.97 371.24 1849.51 381.78
  Q 1852.50 382.39 1855.67 383.39
  Q 1856.13 383.54 1856.18 384.02
  L 1864.06 453.94
  Q 1864.13 454.54 1863.56 454.33
  Q 1841.28 445.86 1819.05 442.08
  Q 1804.10 439.54 1785.69 438.43
  Q 1774.33 437.75 1763.10 438.87
  C 1752.41 439.93 1741.13 442.58 1734.11 450.74
  Q 1730.71 454.69 1730.48 459.86
  Q 1730.43 460.98 1730.11 462.01
  C 1729.46 464.05 1730.41 465.66 1730.51 467.64
  Q 1730.61 469.47 1731.29 471.20
  C 1736.89 485.39 1755.52 492.20 1768.76 497.37
  C 1777.77 500.88 1788.04 504.15 1797.55 507.63
  C 1826.39 518.18 1856.95 530.77 1874.01 558.01
  Q 1875.78 560.83 1877.31 564.01
  Q 1878.90 567.30 1880.05 570.20
  Q 1882.03 575.21 1884.02 584.05
  Z"
/>
<path fill="#0b5ed7" d="
  M 569.05 508.72
  A 0.30 0.30 0.0 0 0 569.35 508.42
  Q 569.44 450.63 569.31 388.18
  Q 569.30 384.47 569.65 380.98
  A 0.63 0.63 0.0 0 1 570.24 380.41
  Q 573.48 380.23 576.90 380.23
  Q 622.72 380.25 668.76 380.27
  Q 669.27 380.27 669.27 380.78
  L 669.27 704.56
  Q 669.27 705.14 668.69 705.14
  L 570.61 705.09
  A 1.24 1.23 0.0 0 1 569.37 703.86
  L 569.36 578.31
  Q 569.36 577.75 568.80 577.75
  L 468.23 577.75
  A 0.77 0.77 0.0 0 0 467.46 578.52
  L 467.45 704.32
  Q 467.45 705.09 466.68 705.09
  L 368.57 705.15
  Q 368.00 705.15 368.00 704.57
  L 368.00 380.93
  A 0.68 0.68 0.0 0 1 368.68 380.25
  Q 414.13 380.23 459.10 380.28
  Q 463.05 380.29 467.01 380.58
  Q 467.46 380.62 467.46 381.06
  L 467.45 508.34
  A 0.38 0.38 0.0 0 0 467.83 508.72
  L 569.05 508.72
  Z"
/>
<rect fill="#0b5ed7" x="741.71" y="380.26" width="99.32" height="324.86" rx="0.66"/>
<path fill="#0b5ed7" d="
  M 1013.85 638.88
  Q 1061.23 639.20 1106.58 638.96
  Q 1108.26 638.95 1107.87 640.59
  Q 1106.61 645.87 1105.48 651.58
  Q 1104.38 657.07 1102.96 662.44
  Q 1101.19 669.14 1099.91 676.09
  Q 1099.41 678.84 1098.64 681.50
  Q 1097.84 684.24 1097.29 686.81
  Q 1095.58 694.75 1093.70 703.93
  Q 1093.46 705.11 1092.26 705.11
  L 915.04 705.11
  A 1.57 1.56 90.0 0 1 913.48 703.54
  L 913.48 381.59
  Q 913.48 380.61 914.44 380.50
  Q 915.29 380.39 916.07 380.39
  Q 962.54 380.07 1012.45 380.34
  A 0.84 0.83 85.4 0 1 1013.26 381.03
  Q 1013.31 381.35 1013.31 381.62
  Q 1013.43 509.94 1013.41 638.43
  A 0.45 0.45 0.0 0 0 1013.85 638.88
  Z"
/>
<rect fill="#0b5ed7" x="1143.04" y="380.26" width="99.34" height="324.86" rx="0.29"/>
</svg>
