<?xml version="1.0" encoding="UTF-8" standalone="no"?>
<!DOCTYPE svg PUBLIC "-//W3C//DTD SVG 1.1//EN" "http://www.w3.org/Graphics/SVG/1.1/DTD/svg11.dtd">
<svg xmlns="http://www.w3.org/2000/svg" version="1.1" viewBox="0.00 0.00 2550.00 765.00">
<path fill="#009473" d="
  M 364.07 293.70
  Q 349.94 291.16 336.91 295.60
  C 329.32 298.19 321.37 304.44 321.06 312.76
  C 320.19 336.04 356.27 336.62 371.22 339.21
  Q 389.71 342.41 408.67 346.60
  C 421.34 349.41 434.07 353.02 445.59 359.07
  Q 469.44 371.58 472.49 398.97
  Q 474.17 414.07 471.76 430.59
  C 464.62 479.48 422.95 506.65 378.71 517.76
  Q 355.16 523.67 332.28 524.32
  Q 293.76 525.40 257.39 521.37
  Q 233.83 518.76 213.28 512.42
  Q 196.07 507.12 183.33 498.43
  C 162.25 484.06 153.04 459.19 155.44 434.14
  C 155.95 428.86 157.67 420.34 161.69 417.04
  Q 162.94 416.01 164.90 416.03
  Q 200.24 416.41 241.57 416.24
  C 249.47 416.21 257.38 415.86 265.40 416.03
  Q 265.92 416.04 265.98 416.56
  C 268.85 440.36 284.26 457.25 308.63 459.74
  C 320.84 460.99 346.75 459.12 350.89 443.82
  Q 352.42 438.16 350.57 429.70
  C 347.46 415.57 334.48 409.90 321.45 407.06
  C 303.77 403.20 283.67 401.80 264.92 400.79
  Q 257.84 400.41 251.81 398.77
  C 225.08 391.51 194.25 372.64 186.55 344.52
  Q 184.57 337.27 184.85 328.75
  Q 185.49 309.82 190.62 294.33
  C 208.78 239.59 268.84 224.59 319.90 222.14
  C 336.49 221.34 352.93 221.44 369.41 221.76
  C 388.66 222.14 408.09 223.46 426.67 228.55
  Q 459.97 237.66 480.37 265.39
  C 488.24 276.09 495.67 289.32 499.34 302.23
  Q 502.48 313.23 503.66 323.34
  Q 503.99 326.20 503.28 329.03
  A 2.61 2.60 6.9 0 1 500.75 331.00
  L 390.53 331.00
  Q 390.04 331.00 390.04 330.51
  Q 389.92 315.34 382.08 304.81
  C 377.90 299.21 370.87 294.92 364.07 293.70
  Z"
/>
<path fill="#009473" d="
  M 622.38 333.53
  L 692.21 221.65
  A 0.32 0.32 0.0 0 1 692.48 221.50
  L 808.84 221.50
  A 0.32 0.32 0.0 0 1 809.10 222.00
  L 651.52 448.88
  A 0.32 0.32 0.0 0 0 651.48 448.97
  L 629.76 524.27
  A 0.32 0.32 0.0 0 1 629.45 524.50
  L 525.92 524.50
  A 0.32 0.32 0.0 0 1 525.61 524.09
  L 547.78 448.87
  A 0.32 0.32 0.0 0 0 547.78 448.71
  L 492.87 221.90
  A 0.32 0.32 0.0 0 1 493.18 221.50
  L 603.11 221.50
  A 0.32 0.32 0.0 0 1 603.42 221.77
  L 621.79 333.41
  A 0.32 0.32 0.0 0 0 622.38 333.53
  Z"
/>
<path fill="#009473" d="
  M 866.14 448.75
  L 992.94 448.75
  A 0.33 0.33 0.0 0 1 993.26 449.16
  L 974.15 524.25
  A 0.33 0.33 0.0 0 1 973.83 524.50
  L 736.93 524.50
  A 0.33 0.33 0.0 0 1 736.61 524.08
  L 817.29 221.74
  A 0.33 0.33 0.0 0 1 817.61 221.50
  L 925.63 221.50
  A 0.33 0.33 0.0 0 1 925.95 221.91
  L 865.82 448.34
  A 0.33 0.33 0.0 0 0 866.14 448.75
  Z"
/>
<path fill="#009473" d="
  M 1106.82 430.10
  L 1237.23 221.65
  A 0.31 0.31 0.0 0 1 1237.49 221.50
  L 1353.31 221.50
  A 0.31 0.31 0.0 0 1 1353.57 221.98
  L 1155.66 524.36
  A 0.31 0.31 0.0 0 1 1155.40 524.50
  L 1002.33 524.50
  A 0.31 0.31 0.0 0 1 1002.02 524.19
  L 1001.95 221.81
  A 0.31 0.31 0.0 0 1 1002.26 221.50
  L 1105.94 221.50
  A 0.31 0.31 0.0 0 1 1106.25 221.81
  L 1106.25 429.94
  A 0.31 0.31 0.0 0 0 1106.82 430.10
  Z"
/>
<path fill="#009473" d="
  M 1434.12 477.25
  L 1332.50 477.25
  A 0.38 0.38 0.0 0 0 1332.18 477.42
  L 1301.69 524.33
  A 0.38 0.38 0.0 0 1 1301.37 524.50
  L 1187.61 524.50
  A 0.38 0.38 0.0 0 1 1187.30 523.91
  L 1385.32 221.67
  A 0.38 0.38 0.0 0 1 1385.64 221.50
  L 1539.62 221.50
  A 0.38 0.38 0.0 0 1 1540.00 221.88
  L 1540.00 524.12
  A 0.38 0.38 0.0 0 1 1539.62 524.50
  L 1434.89 524.50
  A 0.38 0.38 0.0 0 1 1434.51 524.12
  L 1434.50 477.63
  A 0.38 0.38 0.0 0 0 1434.12 477.25
  Z
  M 1433.98 312.16
  L 1369.90 415.74
  A 0.17 0.17 0.0 0 0 1370.04 416.00
  L 1434.25 416.00
  Q 1434.50 416.00 1434.50 415.75
  L 1434.50 312.30
  Q 1434.50 311.31 1433.98 312.16
  Z"
/>
<path fill="#009473" d="
  M 1822.85 395.90
  Q 1822.87 395.82 1823.19 394.78
  Q 1849.93 308.46 1876.73 222.07
  Q 1876.90 221.50 1877.50 221.50
  L 1963.43 221.50
  A 0.55 0.55 0.0 0 1 1963.96 222.20
  L 1877.74 523.96
  Q 1877.59 524.50 1877.04 524.50
  L 1736.97 524.50
  Q 1736.42 524.50 1736.29 523.96
  L 1692.45 336.01
  Q 1692.26 335.19 1692.02 336.00
  L 1637.92 524.18
  A 0.44 0.44 0.0 0 1 1637.50 524.50
  L 1549.72 524.50
  A 0.43 0.43 0.0 0 1 1549.31 523.96
  L 1636.33 221.67
  A 0.24 0.24 0.0 0 1 1636.56 221.50
  L 1784.27 221.50
  A 0.57 0.55 83.4 0 1 1784.81 221.94
  Q 1803.38 309.09 1821.90 395.89
  Q 1822.36 398.03 1822.85 395.90
  Z"
/>
<path fill="#009473" d="
  M 1905.80 524.11
  L 1991.63 221.73
  A 0.31 0.31 0.0 0 1 1991.92 221.50
  L 2104.45 221.50
  A 0.31 0.31 0.0 0 1 2104.75 221.89
  L 2020.18 524.27
  A 0.31 0.31 0.0 0 1 2019.88 524.50
  L 1906.10 524.50
  A 0.31 0.31 0.0 0 1 1905.80 524.11
  Z"
/>
<path fill="#009473" d="
  M 2274.68 477.25
  L 2172.85 477.25
  A 0.32 0.32 0.0 0 0 2172.59 477.40
  L 2142.18 524.35
  A 0.32 0.32 0.0 0 1 2141.92 524.50
  L 2027.91 524.50
  A 0.32 0.32 0.0 0 1 2027.64 524.00
  L 2225.74 221.64
  A 0.32 0.32 0.0 0 1 2226.00 221.50
  L 2379.93 221.50
  A 0.32 0.32 0.0 0 1 2380.25 221.82
  L 2380.25 524.18
  A 0.32 0.32 0.0 0 1 2379.93 524.50
  L 2275.32 524.50
  A 0.32 0.32 0.0 0 1 2275.00 524.18
  L 2275.00 477.57
  A 0.32 0.32 0.0 0 0 2274.68 477.25
  Z
  M 2274.07 312.38
  Q 2210.91 414.96 2210.26 415.68
  A 0.17 0.17 0.0 0 0 2210.36 415.96
  Q 2210.98 416.05 2274.69 415.98
  Q 2275.00 415.98 2275.00 415.67
  Q 2275.01 363.54 2274.99 312.27
  Q 2274.99 311.25 2274.32 312.01
  Q 2274.27 312.06 2274.07 312.38
  Z"
/>
</svg>
